ISO-10303-21;
HEADER;
FILE_DESCRIPTION(('ViewDefinition [ReferenceView_V1.2]','RevitIdentifiers [VersionGUID: 9ae263db-ae09-4963-a148-501858fcf9c1, NumberOfSaves: 701]','Options [Excluded Entities: IfcOpeningElement;IfcOpeningStandardCase;]','ExchangeRequirement [Architecture]','CoordinateReference [CoordinateBase: Gemeinsam genutzte Koordinaten, ProjectSite: Intern]'),'2;1');
FILE_NAME('329_PLOE13_R25_HCZ_XL.ifc','2026-06-09T16:47:58+01:00',(''),(''),'ODA SDAI 24.11','Autodesk Revit 25.0.2.419 (DEU) - IFC 25.0.2.419','');
FILE_SCHEMA(('IFC4'));
ENDSEC;

DATA;
#1=IFCORGANIZATION($,'Autodesk Revit 2025 (DEU)',$,$,$);
#2=IFCAPPLICATION(#1,'2025','Autodesk Revit 2025 (DEU)','Revit');
#3=IFCCARTESIANPOINT((0.,0.,0.));
#4=IFCCARTESIANPOINT((0.,0.));
#5=IFCDIRECTION((1.,0.,0.));
#6=IFCDIRECTION((-1.,0.,0.));
#7=IFCDIRECTION((0.,1.,0.));
#8=IFCDIRECTION((0.,-1.,0.));
#9=IFCDIRECTION((0.,0.,1.));
#10=IFCDIRECTION((0.,0.,-1.));
#11=IFCDIRECTION((1.,0.));
#12=IFCDIRECTION((-1.,0.));
#13=IFCDIRECTION((0.,1.));
#14=IFCDIRECTION((0.,-1.));
#15=IFCPERSON($,'Wien','Arbeiterkammer',$,$,$,$,$);
#16=IFCORGANIZATION($,'','',$,$);
#17=IFCPERSONANDORGANIZATION(#15,#16,$);
#18=IFCOWNERHISTORY(#17,#2,$,.NOCHANGE.,$,$,$,1780988242);
#19=IFCSIUNIT(*,.LENGTHUNIT.,$,.METRE.);
#20=IFCAXIS2PLACEMENT3D(#3,$,$);
#21=IFCDIRECTION((6.123233995736766E-017,1.));
#22=IFCGEOMETRICREPRESENTATIONCONTEXT($,'Model',3,1.0000000000000001E-005,#20,#21);
#23=IFCGEOMETRICREPRESENTATIONSUBCONTEXT('Axis','Model',*,*,*,*,#22,$,.GRAPH_VIEW.,$);
#24=IFCGEOMETRICREPRESENTATIONSUBCONTEXT('Body','Model',*,*,*,*,#22,$,.MODEL_VIEW.,$);
#25=IFCGEOMETRICREPRESENTATIONSUBCONTEXT('Box','Model',*,*,*,*,#22,$,.MODEL_VIEW.,$);
#26=IFCGEOMETRICREPRESENTATIONSUBCONTEXT('FootPrint','Model',*,*,*,*,#22,$,.MODEL_VIEW.,$);
#27=IFCPROJECT('1Mvusy5yLEhxIbY8AVkO30',#18,'PLOE 13 YOCA',$,$,'PLOE 13 YOCA','',(#22),#422);
#28=IFCCLASSIFICATION('CSI (Construction Specifications Institute)','1998',$,'Uniformat','UniFormat Classification','https://www.csiresources.org/standards/uniformat',$);
#29=IFCAXIS2PLACEMENT3D(#3,$,$);
#30=IFCLOCALPLACEMENT(#72,#29);
#31=IFCPOSTALADDRESS($,$,$,$,('Pl\X\F6\X\DFlgasse 13\X\0D\X\0A1040 Wien, \X\D6sterreich'),$,'','','','');
#32=IFCBUILDING('1Mvusy5yLEhxIbY8AVkO31',#18,'Arbeiterkammer Wien',$,$,#30,$,'Arbeiterkammer Wien',.ELEMENT.,$,$,#31);
#33=IFCCARTESIANPOINT((0.,0.,-7.2699999999999294));
#34=IFCAXIS2PLACEMENT3D(#33,$,$);
#35=IFCLOCALPLACEMENT(#30,#34);
#36=IFCBUILDINGSTOREY('1JoGkeGoH3EQe_NtvOwpGD',#18,'UG02_OKRF',$,'Ebene:Ebene OKRF',#35,$,'UG02_OKRF',.ELEMENT.,-7.2699999999999294);
#37=IFCCARTESIANPOINT((0.,0.,-3.7200000000000006));
#38=IFCAXIS2PLACEMENT3D(#37,$,$);
#39=IFCLOCALPLACEMENT(#30,#38);
#40=IFCBUILDINGSTOREY('3Dghe4xlf7XuAvLmcmPPfE',#18,'UG01_OKRF',$,'Ebene:Ebene OKRF',#39,$,'UG01_OKRF',.ELEMENT.,-3.7200000000000006);
#41=IFCCARTESIANPOINT((0.,0.,-0.18999999999999997));
#42=IFCAXIS2PLACEMENT3D(#41,$,$);
#43=IFCLOCALPLACEMENT(#30,#42);
#44=IFCBUILDINGSTOREY('1hdTAH6w977fbn2YchaeWs',#18,'EG00_OKRF',$,'Ebene:Ebene OKRF',#43,$,'EG00_OKRF',.ELEMENT.,-0.18999999999999997);
#45=IFCCARTESIANPOINT((0.,0.,3.8599999999999999));
#46=IFCAXIS2PLACEMENT3D(#45,$,$);
#47=IFCLOCALPLACEMENT(#30,#46);
#48=IFCBUILDINGSTOREY('1nMd_9S$L5oAiVlbLunlDz',#18,'OG01_OKRF',$,'Ebene:Ebene OKRF',#47,$,'OG01_OKRF',.ELEMENT.,3.8599999999999999);
#49=IFCCARTESIANPOINT((0.,0.,7.9399999999999995));
#50=IFCAXIS2PLACEMENT3D(#49,$,$);
#51=IFCLOCALPLACEMENT(#30,#50);
#52=IFCBUILDINGSTOREY('3ffD0FjFfFKhZ76iWy7PHR',#18,'OG02_OKRF',$,'Ebene:Ebene OKRF',#51,$,'OG02_OKRF',.ELEMENT.,7.9399999999999995);
#53=IFCCARTESIANPOINT((0.,0.,12.094999999999999));
#54=IFCAXIS2PLACEMENT3D(#53,$,$);
#55=IFCLOCALPLACEMENT(#30,#54);
#56=IFCBUILDINGSTOREY('0cA3tqyhv6tuOuEG8Alsj4',#18,'OG03_OKRF',$,'Ebene:Ebene OKRF',#55,$,'OG03_OKRF',.ELEMENT.,12.094999999999999);
#57=IFCCARTESIANPOINT((0.,0.,16.27));
#58=IFCAXIS2PLACEMENT3D(#57,$,$);
#59=IFCLOCALPLACEMENT(#30,#58);
#60=IFCBUILDINGSTOREY('0wvQb95bP7zRnE9dcR$6$A',#18,'OG04_OKRF',$,'Ebene:Ebene OKRF',#59,$,'OG04_OKRF',.ELEMENT.,16.27);
#61=IFCCARTESIANPOINT((0.,0.,19.849999999999998));
#62=IFCAXIS2PLACEMENT3D(#61,$,$);
#63=IFCLOCALPLACEMENT(#30,#62);
#64=IFCBUILDINGSTOREY('0wvQb95bP7zRnE9dcR$6zf',#18,'OG05_OKRF',$,'Ebene:Ebene OKRF',#63,$,'OG05_OKRF',.ELEMENT.,19.849999999999998);
#65=IFCCARTESIANPOINT((0.,0.,23.640870100817214));
#66=IFCAXIS2PLACEMENT3D(#65,$,$);
#67=IFCLOCALPLACEMENT(#30,#66);
#68=IFCBUILDINGSTOREY('1i7EZHcEz6VBJ_8X$rV4DQ',#18,'DD00',$,'Ebene:Ebene OKFF',#67,$,'DD00',.ELEMENT.,23.640870100817214);
#69=IFCCARTESIANPOINT((3198.3431648307601,339436.93445929827,0.));
#70=IFCDIRECTION((0.93886219056682307,0.3442931703128404,0.));
#71=IFCAXIS2PLACEMENT3D(#69,#9,#70);
#72=IFCLOCALPLACEMENT($,#71);
#73=IFCSITE('1Mvusy5yLEhxIbY8AVkO32',#18,'Pl\X\F6\X\DFlgasse 13, 1040 Wien, \X\D6sterreich','Das Haus der Jugend ist ein zukunftsweisender Ort der Begegnung, Bildung \X\0D\X\0Aund Selbstorganisation, der junge Menschen st\X\E4rkt und vernetzt. Es f\X\F6rdert \X\0D\X\0ADialog, Engagement und kollektives Erleben und setzt ein Zeichen f\X\FCr Respekt \X\0D\X\0Aund Mitbestimmung. Als inspirierender Gegenentwurf zu einer krisenhaften \X\0D\X\0AWelt gibt es jungen Besch\X\E4ftigten eine Stimme und strahlt \X\FCber Wien hinaus.',$,#72,$,$,.ELEMENT.,(42,24,53,508911),(-71,-15,-29,-58837),0.,$,$);
#74=IFCSIUNIT(*,.AREAUNIT.,$,.SQUARE_METRE.);
#75=IFCCARTESIANPOINT((1.3342188338058281,47.344997491150934,0.));
#76=IFCAXIS2PLACEMENT3D(#75,#9,#8);
#77=IFCLOCALPLACEMENT(#63,#76);
#78=IFCCARTESIANPOINTLIST3D(((0.,-2.4141359785525552E-017,0.),(5.4400000000067594,1.2352234093508528E-016,0.)));
#79=IFCINDEXEDPOLYCURVE(#78,$,.F.);
#80=IFCSHAPEREPRESENTATION(#23,'Axis','Curve3D',(#79));
#81=IFCCARTESIANPOINTLIST2D(((-1.9510576141281668,-2.7200000000000055),(2.4355634081902982,-2.7200000000000055),(1.466551820066031,2.7200000000000055),(-1.9510576141281668,2.7199999999999966),(-1.9510576141281668,-2.7200000000000055)));
#82=IFCINDEXEDPOLYCURVE(#81,$,.F.);
#83=IFCARBITRARYCLOSEDPROFILEDEF(.AREA.,'WAN_IN_GIP_150',#82);
#84=IFCCARTESIANPOINT((2.720000000000014,0.050000000000000051,1.9510576141281668));
#85=IFCAXIS2PLACEMENT3D(#84,#7,#9);
#86=IFCEXTRUDEDAREASOLID(#83,#85,#9,0.025000000000000001);
#87=IFCSIUNIT(*,.PLANEANGLEUNIT.,$,.RADIAN.);
#88=IFCDIMENSIONALEXPONENTS(0,0,0,0,0,0,0);
#89=IFCMEASUREWITHUNIT(IFCPLANEANGLEMEASURE(0.017453292519943278),#87);
#90=IFCCONVERSIONBASEDUNIT(#88,.PLANEANGLEUNIT.,'DEGREE',#89);
#91=IFCCARTESIANPOINTLIST2D(((-1.9510576141281668,-2.720000000000014),(2.435563408190311,-2.7200000000000228),(1.4665518200660355,2.7200000000000055),(-1.9510576141281668,2.7200000000000055),(-1.9510576141281668,-2.720000000000014)));
#92=IFCINDEXEDPOLYCURVE(#91,$,.F.);
#93=IFCARBITRARYCLOSEDPROFILEDEF(.AREA.,'WAN_IN_GIP_150',#92);
#94=IFCCARTESIANPOINT((2.720000000000014,-0.049999999999999954,1.9510576141281668));
#95=IFCAXIS2PLACEMENT3D(#94,#7,#9);
#96=IFCEXTRUDEDAREASOLID(#93,#95,#9,0.10000000000000001);
#97=IFCCARTESIANPOINTLIST2D(((-1.951057614128171,-2.7200000000000055),(2.4355634081903066,-2.7200000000000055),(1.4665518200660355,2.7200000000000055),(-1.951057614128171,2.7200000000000055),(-1.951057614128171,-2.7200000000000055)));
#98=IFCINDEXEDPOLYCURVE(#97,$,.F.);
#99=IFCARBITRARYCLOSEDPROFILEDEF(.AREA.,'WAN_IN_GIP_150',#98);
#100=IFCCARTESIANPOINT((2.720000000000014,-0.074999999999999956,1.951057614128171));
#101=IFCAXIS2PLACEMENT3D(#100,#7,#9);
#102=IFCEXTRUDEDAREASOLID(#99,#101,#9,0.025000000000000001);
#103=IFCCOLOURRGB($,1.,1.,1.);
#104=IFCSURFACESTYLERENDERING(#103,0.,$,$,$,$,IFCNORMALISEDRATIOMEASURE(0.5),IFCSPECULAREXPONENT(64.),.NOTDEFINED.);
#105=IFCSURFACESTYLE('Generisch- Gipskartonbauplatte GKB 12.5 mm',.BOTH.,(#104));
#106=IFCSTYLEDITEM(#86,(#105),$);
#107=IFCCOLOURRGB($,1.,1.,1.);
#108=IFCSURFACESTYLERENDERING(#107,0.,$,$,$,$,IFCNORMALISEDRATIOMEASURE(0.5),IFCSPECULAREXPONENT(64.),.NOTDEFINED.);
#109=IFCSURFACESTYLE('W\X\E4rmed\X\E4mmung- Mineralwolle MW-WL / CW100 Steher',.BOTH.,(#108));
#110=IFCSTYLEDITEM(#96,(#109),$);
#111=IFCSTYLEDITEM(#102,(#105),$);
#112=IFCSHAPEREPRESENTATION(#24,'Body','SweptSolid',(#86,#96,#102));
#113=IFCPRODUCTDEFINITIONSHAPE($,$,(#112));
#114=IFCSHAPEREPRESENTATION(#24,'Body','SweptSolid',(#102));
#115=IFCSHAPEASPECT((#114),'Generisch- Gipskartonbauplatte GKB 12.5 mm',$,.U.,#113);
#116=IFCSHAPEREPRESENTATION(#24,'Body','SweptSolid',(#96));
#117=IFCSHAPEASPECT((#116),'W\X\E4rmed\X\E4mmung- Mineralwolle MW-WL / CW100 Steher',$,.U.,#113);
#118=IFCSHAPEREPRESENTATION(#24,'Body','SweptSolid',(#86));
#119=IFCSHAPEASPECT((#118),'Generisch- Gipskartonbauplatte GKB 12.5 mm (2)',$,.U.,#113);
#120=IFCPRODUCTDEFINITIONSHAPE($,$,(#80,#112));
#121=IFCWALL('3awtIL5L93lgPfcujRheHX',#18,'Basiswand:WAN_IN_GIP_150:21518022',$,'Basiswand:WAN_IN_GIP_150',#77,#120,'21518022',.NOTDEFINED.);
#122=IFCMATERIAL('Generisch- Gipskartonbauplatte GKB 12.5 mm',$,$);
#123=IFCMATERIAL('W\X\E4rmed\X\E4mmung- Mineralwolle MW-WL / CW100 Steher',$,$);
#124=IFCMATERIALCONSTITUENT('Generisch- Gipskartonbauplatte GKB 12.5 mm',$,#122,$,$);
#125=IFCQUANTITYLENGTH('Width',$,$,0.025000000000000001,$);
#126=IFCMATERIALCONSTITUENT('W\X\E4rmed\X\E4mmung- Mineralwolle MW-WL / CW100 Steher',$,#123,$,$);
#127=IFCQUANTITYLENGTH('Width',$,$,0.10000000000000001,$);
#128=IFCMATERIALCONSTITUENT('Generisch- Gipskartonbauplatte GKB 12.5 mm (2)',$,#122,$,$);
#129=IFCQUANTITYLENGTH('Width',$,$,0.025000000000000001,$);
#130=IFCMATERIALCONSTITUENTSET('Basiswand:WAN_IN_GIP_150',$,(#124,#126,#128));
#131=IFCPHYSICALCOMPLEXQUANTITY('Generisch- Gipskartonbauplatte GKB 12.5 mm',$,(#125),'Layer',$,$);
#132=IFCPHYSICALCOMPLEXQUANTITY('W\X\E4rmed\X\E4mmung- Mineralwolle MW-WL / CW100 Steher',$,(#127),'Layer',$,$);
#133=IFCPHYSICALCOMPLEXQUANTITY('Generisch- Gipskartonbauplatte GKB 12.5 mm (2)',$,(#129),'Layer',$,$);
#134=IFCQUANTITYLENGTH('Width',$,$,0.14999999999999999,$);
#135=IFCQUANTITYLENGTH('Height',$,$,4.3866210223184776,$);
#136=IFCQUANTITYLENGTH('Length',$,$,5.4400000000000102,$);
#137=IFCSIUNIT(*,.VOLUMEUNIT.,$,.CUBIC_METRE.);
#138=IFCQUANTITYVOLUME('GrossVolume',$,$,3.1841260262589022,$);
#139=IFCQUANTITYAREA('GrossSideArea',$,$,21.227506841726012,$);
#140=IFCQUANTITYAREA('NetSideArea',$,$,21.227506841726001,$);
#141=IFCQUANTITYVOLUME('NetVolume',$,$,3.1841260262577564,$);
#142=IFCELEMENTQUANTITY('1Pf8I4nYl3gTDN$hXoF_b3',#18,'Qto_WallBaseQuantities',$,$,(#131,#132,#133,#134,#135,#136,#138,#139,#140,#141));
#143=IFCRELDEFINESBYPROPERTIES('3TrrpJ9T5ghexpaNnZAegL',#18,$,$,(#121),#142);
#144=IFCWALLTYPE('2xMQkSysP7DRRYTjtt4mso',#18,'Basiswand:WAN_IN_GIP_150',$,$,(#179),$,'25852912',$,.STANDARD.);
#145=IFCPROPERTYSINGLEVALUE('Abdichtung',$,IFCTEXT('ND'),$);
#146=IFCPROPERTYSINGLEVALUE('AussenliegendesElement',$,IFCBOOLEAN(.F.),$);
#147=IFCPROPERTYSINGLEVALUE('BruttoFlaeche',$,IFCAREAMEASURE(21.227506841726001),$);
#148=IFCPROPERTYSINGLEVALUE('BruttoVolumen',$,IFCVOLUMEMEASURE(3.1841260262577564),$);
#149=IFCPROPERTYSINGLEVALUE('Ebene',$,IFCTEXT('OG05_OKRF'),$);
#150=IFCPROPERTYSINGLEVALUE('ElementName',$,IFCTEXT('WAN_IN_GIP_150'),$);
#151=IFCPROPERTYSINGLEVALUE('ElementStatus',$,IFCTEXT('Neubau'),$);
#152=IFCPROPERTYSINGLEVALUE('ElementVerweis',$,IFCTEXT('IW02'),$);
#153=IFCPROPERTYSINGLEVALUE('ErdberuehrendesElement',$,IFCBOOLEAN(.F.),$);
#154=IFCPROPERTYSINGLEVALUE('Feuerwiderstandsklasse',$,IFCTEXT('EI 60'),$);
#155=IFCPROPERTYSINGLEVALUE('Gebaeudeteil',$,IFCTEXT('YOCA'),$);
#156=IFCPROPERTYSINGLEVALUE('Hoehe',$,IFCLENGTHMEASURE(3.2900000000000014),$);
#157=IFCPROPERTYSINGLEVALUE('Laenge',$,IFCLENGTHMEASURE(5.4400000000000102),$);
#158=IFCPROPERTYSINGLEVALUE('MaterialName',$,IFCTEXT('GIP'),$);
#159=IFCPROPERTYSINGLEVALUE('Nettoflaeche',$,IFCAREAMEASURE(21.227506841726001),$);
#160=IFCPROPERTYSINGLEVALUE('NettoVolumen',$,IFCVOLUMEMEASURE(3.1841260262577564),$);
#161=IFCPROPERTYSINGLEVALUE('Oberflaeche',$,IFCTEXT('GIP'),$);
#162=IFCPROPERTYSINGLEVALUE('Schallschutzklasse',$,IFCTEXT('ND'),$);
#163=IFCPROPERTYSINGLEVALUE('TragendesElement',$,IFCBOOLEAN(.F.),$);
#164=IFCPROPERTYSET('2w6$Codd1l5H0SUF8wCoe4',#18,'AUKOset','',(#145,#146,#147,#148,#149,#150,#151,#152,#153,#154,#155,#156,#157,#158,#159,#160,#161,#162,#163));
#165=IFCPROPERTYSINGLEVALUE('IsExternal',$,IFCBOOLEAN(.F.),$);
#166=IFCPROPERTYSINGLEVALUE('Status',$,IFCTEXT('Neubau'),$);
#167=IFCPROPERTYSINGLEVALUE('Reference',$,IFCTEXT('WAN_IN_GIP_150'),$);
#168=IFCPROPERTYSINGLEVALUE('LoadBearing',$,IFCBOOLEAN(.F.),$);
#169=IFCPROPERTYSINGLEVALUE('Compartmentation',$,IFCTEXT('Nein'),$);
#170=IFCPROPERTYSINGLEVALUE('AcousticRating',$,IFCTEXT('ND'),$);
#171=IFCPROPERTYSINGLEVALUE('FireRating',$,IFCTEXT('EI 60'),$);
#172=IFCPROPERTYSET('0LJljenKIveiQA63AC_P5K',#18,'Pset_WallCommon','',(#165,#166,#167,#168,#169,#170,#171));
#173=IFCPROPERTYSINGLEVALUE('ElementMainMateriality',$,IFCTEXT('GIP'),$);
#174=IFCPROPERTYSET('1OUCAIDNmFVg45cNyhVd9Q',#18,'Pset_WallSpecific','',(#173));
#175=IFCRELDEFINESBYPROPERTIES('2AOGxJSwW_LO7xNBjT3Y7R',#18,$,$,(#121),#164);
#176=IFCRELDEFINESBYPROPERTIES('0Z_qIXymnylCrsTbmNe7JV',#18,$,$,(#121),#172);
#177=IFCRELDEFINESBYPROPERTIES('06AjHntD3$iXlWi3JKs7qD',#18,$,$,(#121),#174);
#178=IFCPROPERTYSINGLEVALUE('Dicke',$,IFCLENGTHMEASURE(0.15000000000000002),$);
#179=IFCPROPERTYSET('1DjtWZtPijfAhViKZHP90V',#18,'AUKOset',$,(#178));
#180=IFCAXIS2PLACEMENT3D(#197,$,$);
#181=IFCLOCALPLACEMENT(#67,#180);
#182=IFCCOLOURRGBLIST(((0.75294117647058822,0.74901960784313726,0.75686274509803919)));
#183=IFCINDEXEDPOLYGONALFACE((3,4,1,2));
#184=IFCINDEXEDPOLYGONALFACE((5,6,2,1));
#185=IFCINDEXEDPOLYGONALFACE((4,3,7,8));
#186=IFCINDEXEDPOLYGONALFACE((7,3,2,6));
#187=IFCINDEXEDPOLYGONALFACE((4,8,5,1));
#188=IFCINDEXEDPOLYGONALFACE((8,7,6,5));
#189=IFCCARTESIANPOINTLIST3D(((0.,4.2123547035562012,0.75033465460215965),(0.,3.2372552430673309,0.75033465460215965),(0.75960000000101846,3.2372552430675441,0.75033465460215965),(0.75960000000101846,4.2123547035564215,0.75033465460215965),(0.,0.,3.5527136788005009E-015),(0.,0.,0.17369166852710549),(0.75960000000101846,2.1316282072803006E-013,0.17369166852710549),(0.75960000000101846,2.1316282072803006E-013,3.5527136788005009E-015)));
#190=IFCPOLYGONALFACESET(#189,.T.,(#183,#184,#185,#186,#187,#188),$);
#191=IFCINDEXEDCOLOURMAP(#190,1.,#182,(1,1,1,1,1,1));
#192=IFCCOLOURRGB($,0.75294117647058822,0.74901960784313726,0.75686274509803919);
#193=IFCSURFACESTYLERENDERING(#192,0.,$,$,$,$,IFCNORMALISEDRATIOMEASURE(0.5),IFCSPECULAREXPONENT(64.),.NOTDEFINED.);
#194=IFCSURFACESTYLE('Generisch- Stehfalz',.BOTH.,(#193));
#195=IFCSTYLEDITEM(#190,(#194),$);
#196=IFCSHAPEREPRESENTATION(#24,'Body','Tessellation',(#190));
#197=IFCCARTESIANPOINT((0.95441883380481018,42.196997491144039,0.15021626689910406));
#198=IFCPRODUCTDEFINITIONSHAPE($,$,(#196));
#199=IFCCOVERING('3qE0bfTyj7xuHfLeAU4RzH',#18,'Basisdach:DAB_AU_ALU_171_Stehfalzkonstruktion:27560786',$,'Basisdach:DAB_AU_ALU_171_Stehfalzkonstruktion',#181,#198,'27560786',.ROOFING.);
#200=IFCCOVERINGTYPE('02SDbkSwnB0RtUNjQaQi$B',#18,'Basisdach:DAB_AU_ALU_171_Stehfalzkonstruktion',$,$,$,$,'27559280',$,.ROOFING.);
#201=IFCMATERIAL('Generisch- Stehfalz',$,$);
#202=IFCMATERIAL('<Unnamed>',$,$);
#203=IFCMATERIALCONSTITUENT('Generisch- Stehfalz',$,#201,$,$);
#204=IFCQUANTITYLENGTH('Width',$,$,0.064999999999999988,$);
#205=IFCMATERIALCONSTITUENT('Layer',$,#202,$,$);
#206=IFCQUANTITYLENGTH('Width',$,$,0.0019999999999999996,$);
#207=IFCMATERIALCONSTITUENT('Layer',$,#202,$,$);
#208=IFCQUANTITYLENGTH('Width',$,$,0.024,$);
#209=IFCMATERIALCONSTITUENT('Layer',$,#202,$,$);
#210=IFCQUANTITYLENGTH('Width',$,$,0.080000000000000002,$);
#211=IFCMATERIALCONSTITUENTSET('Basisdach:DAB_AU_ALU_171_Stehfalzkonstruktion',$,(#203,#205,#207,#209));
#212=IFCPHYSICALCOMPLEXQUANTITY('Generisch- Stehfalz',$,(#204),'Layer',$,$);
#213=IFCPHYSICALCOMPLEXQUANTITY('Layer',$,(#206),'Layer',$,$);
#214=IFCPHYSICALCOMPLEXQUANTITY('Layer',$,(#208),'Layer',$,$);
#215=IFCPHYSICALCOMPLEXQUANTITY('Layer',$,(#210),'Layer',$,$);
#216=IFCQUANTITYLENGTH('Width',$,$,0.17099999999999999,$);
#217=IFCPROPERTYSINGLEVALUE('AussenliegendesElement',$,IFCBOOLEAN(.T.),$);
#218=IFCPROPERTYSINGLEVALUE('BruttoFlaeche',$,IFCAREAMEASURE(88.313741918332695),$);
#219=IFCPROPERTYSINGLEVALUE('BruttoVolumen',$,IFCVOLUMEMEASURE(14.784438276264922),$);
#220=IFCPROPERTYSINGLEVALUE('Dicke',$,IFCLENGTHMEASURE(0.17099999999999999),$);
#221=IFCPROPERTYSINGLEVALUE('Ebene',$,IFCTEXT('DD00'),$);
#222=IFCPROPERTYSINGLEVALUE('ElementName',$,IFCTEXT('DAB_AU_ALU_171_Stehfalzkonstruktion'),$);
#223=IFCPROPERTYSINGLEVALUE('ElementStatus',$,IFCTEXT('Neubau'),$);
#224=IFCPROPERTYSINGLEVALUE('ElementVerweis',$,IFCTEXT('DA01'),$);
#225=IFCPROPERTYSINGLEVALUE('Feuerwiderstandsklasse',$,IFCTEXT('R 60'),$);
#226=IFCPROPERTYSINGLEVALUE('Gebaeudeteil',$,IFCTEXT('YOCA'),$);
#227=IFCPROPERTYSINGLEVALUE('Nettoflaeche',$,IFCAREAMEASURE(88.313741918332695),$);
#228=IFCPROPERTYSINGLEVALUE('Nettovolumen',$,IFCVOLUMEMEASURE(14.784438276264922),$);
#229=IFCPROPERTYSINGLEVALUE('Schallschutzklasse',$,IFCTEXT('-'),$);
#230=IFCPROPERTYSET('09Xw$cWZ4OJhay3EwEVnfu',#18,'AUKOset','',(#153,#163,#217,#218,#219,#220,#221,#222,#223,#224,#225,#226,#227,#228,#229));
#231=IFCPROPERTYSINGLEVALUE('IsExternal',$,IFCBOOLEAN(.T.),$);
#232=IFCPROPERTYSINGLEVALUE('Status',$,IFCTEXT('Neubau'),$);
#233=IFCPROPERTYSINGLEVALUE('FireRating',$,IFCTEXT('R 60'),$);
#234=IFCPROPERTYSINGLEVALUE('AcousticRating',$,IFCTEXT('-'),$);
#235=IFCPROPERTYSINGLEVALUE('Reference',$,IFCTEXT('DAB_AU_ALU_171_Stehfalzkonstruktion'),$);
#236=IFCPROPERTYSET('0w195Is8JD5aeBtdZrG2tQ',#18,'Pset_CoveringCommon','',(#231,#232,#233,#234,#235));
#237=IFCPROPERTYSINGLEVALUE('ElementMainMateriality',$,IFCTEXT('-'),$);
#238=IFCPROPERTYSET('1OgoXTWiAzYWXbT8swg45W',#18,'Pset_CoveringSpecific','',(#237));
#239=IFCRELDEFINESBYPROPERTIES('11$O6Pn5laEXQ3va10p4eX',#18,$,$,(#199),#230);
#240=IFCRELDEFINESBYPROPERTIES('3iQnd3Q_ky2Q3bU_Ey_vP2',#18,$,$,(#199),#236);
#241=IFCRELDEFINESBYPROPERTIES('1_FLKJ5G6gjISC2JkTqOPP',#18,$,$,(#199),#238);
#242=IFCQUANTITYAREA('NetArea','',$,88.313741918332695,$);
#243=IFCELEMENTQUANTITY('1QjOwxs$nNCEjGTfpNTySs',#18,'Qto_CoveringBaseQuantities',$,$,(#242));
#244=IFCRELDEFINESBYPROPERTIES('2TDdN9gLTwbi$yOPbKWE6A',#18,$,$,(#199),#243);
#245=IFCAXIS2PLACEMENT3D(#267,$,$);
#246=IFCLOCALPLACEMENT(#67,#245);
#247=IFCCOLOURRGBLIST(((1.,1.,1.)));
#248=IFCINDEXEDPOLYGONALFACE((1,2,3,4,5,6,7,8));
#249=IFCINDEXEDPOLYGONALFACE((2,1,12,9,6,5,10,11));
#250=IFCINDEXEDPOLYGONALFACE((14,13,7,6,9));
#251=IFCINDEXEDPOLYGONALFACE((3,2,11,19,18));
#252=IFCINDEXEDPOLYGONALFACE((12,1,8,15,16));
#253=IFCINDEXEDPOLYGONALFACE((4,17,20,10,5));
#254=IFCINDEXEDPOLYGONALFACE((15,8,7,13));
#255=IFCINDEXEDPOLYGONALFACE((19,11,10,20));
#256=IFCINDEXEDPOLYGONALFACE((12,16,14,9));
#257=IFCINDEXEDPOLYGONALFACE((18,17,4,3));
#258=IFCINDEXEDPOLYGONALFACEWITHVOIDS((15,13,14,16),((19,20,17,18)));
#259=IFCCARTESIANPOINTLIST3D(((0.75960000000101846,5.7448000000068973,1.2738115881254828),(0.27480000000163896,5.7448000000068973,1.2738115881254828),(0.27480000000163585,4.6592165880396053,1.2738115881254828),(0.19480000000163533,4.6592165880396053,1.2738115881254828),(0.19480000000163866,5.7448000000068973,1.2738115881254828),(0.,5.7448000000068973,1.2738115881254828),(0.,4.5052535153298479,1.2738115881254828),(0.75960000000101846,4.5052535153300681,1.2738115881254828),(0.,5.7448000000068973,1.0233047374012827),(0.19480000000163866,5.7448000000068973,1.1015167752758899),(0.27480000000163896,5.7448000000068973,1.1015167752758899),(0.75960000000101846,5.7448000000068973,1.0233047374012472),(0.,-1.4210854715202004E-014,0.47130370875191119),(0.,-1.4210854715202004E-014,0.),(0.75960000000101846,1.9895196601282805E-013,0.47130370875191119),(0.75960000000101846,1.9895196601282805E-013,0.),(0.19480000000162112,4.2632564145606011E-014,0.44387870845801203),(0.27480000000162252,5.6843418860808015E-014,0.44387870845801558),(0.27480000000162252,5.6843418860808015E-014,0.078212037874642704),(0.19480000000162112,4.2632564145606011E-014,0.078212037874632045)));
#260=IFCPOLYGONALFACESET(#259,.T.,(#248,#249,#250,#251,#252,#253,#254,#255,#256,#257,#258),$);
#261=IFCINDEXEDCOLOURMAP(#260,1.,#247,(1,1,1,1,1,1,1,1,1,1,1));
#262=IFCCOLOURRGB($,1.,1.,1.);
#263=IFCSURFACESTYLERENDERING(#262,0.,$,$,$,$,IFCNORMALISEDRATIOMEASURE(0.5),IFCSPECULAREXPONENT(64.),.NOTDEFINED.);
#264=IFCSURFACESTYLE('Generisch- Gipskartonfeuerschutzplatte GKF12.5 mm',.BOTH.,(#263));
#265=IFCSTYLEDITEM(#260,(#264),$);
#266=IFCSHAPEREPRESENTATION(#24,'Body','Tessellation',(#260));
#267=IFCCARTESIANPOINT((0.95441883380481018,41.904997491144051,-0.37326066662421908));
#268=IFCPRODUCTDEFINITIONSHAPE($,$,(#266));
#269=IFCROOF('3qE0bfTyj7xuHfLeAU4RzR',#18,'Basisdach:DAC_AU_D\X\C4M_292_Zwischensparrungd\X\E4mmung_DA01:27560792',$,'Basisdach:DAC_AU_D\X\C4M_292_Zwischensparrungd\X\E4mmung_DA01',#246,#268,'27560792',.SHED_ROOF.);
#270=IFCROOFTYPE('2e0LTzo7XCigp1snvMjjGD',#18,'Basisdach:DAC_AU_D\X\C4M_292_Zwischensparrungd\X\E4mmung_DA01',$,$,$,$,'37433734',$,.SHED_ROOF.);
#271=IFCMATERIAL('Holz - generisch 140-100-70',$,'Holz');
#272=IFCCOLOURRGB($,0.5490196078431373,0.39215686274509803,0.27450980392156865);
#273=IFCSURFACESTYLERENDERING(#272,0.,$,$,$,$,IFCNORMALISEDRATIOMEASURE(0.5),IFCSPECULAREXPONENT(64.),.NOTDEFINED.);
#274=IFCSURFACESTYLE('Holz - generisch 140-100-70',.BOTH.,(#273));
#275=IFCMATERIAL('W\X\E4rmed\X\E4mmung- Hart_BP_Geb_C',$,'Putz');
#276=IFCCOLOURRGB($,0.75294117647058822,0.75294117647058822,0.75294117647058822);
#277=IFCSURFACESTYLERENDERING(#276,0.,$,$,$,$,IFCNORMALISEDRATIOMEASURE(0.5),IFCSPECULAREXPONENT(128.),.NOTDEFINED.);
#278=IFCSURFACESTYLE('W\X\E4rmed\X\E4mmung- Hart_BP_Geb_C',.BOTH.,(#277));
#279=IFCMATERIAL('Generisch- Gipskartonfeuerschutzplatte GKF12.5 mm',$,$);
#280=IFCMATERIALCONSTITUENT('Layer',$,#202,$,$);
#281=IFCQUANTITYLENGTH('Width',$,$,0.0030000000000000001,$);
#282=IFCMATERIALCONSTITUENT('Holz - generisch 140-100-70',$,#271,$,'Holz');
#283=IFCQUANTITYLENGTH('Width',$,$,0.024,$);
#284=IFCMATERIALCONSTITUENT('W\X\E4rmed\X\E4mmung- Hart_BP_Geb_C',$,#275,$,'Putz');
#285=IFCQUANTITYLENGTH('Width',$,$,0.35999999999999999,$);
#286=IFCMATERIALCONSTITUENT('Layer',$,#202,$,$);
#287=IFCQUANTITYLENGTH('Width',$,$,0.0019999999999999996,$);
#288=IFCMATERIALCONSTITUENT('W\X\E4rmed\X\E4mmung- Hart_BP_Geb_C',$,#275,$,'Putz');
#289=IFCQUANTITYLENGTH('Width',$,$,0.050000000000000003,$);
#290=IFCMATERIALCONSTITUENT('Generisch- Gipskartonfeuerschutzplatte GKF12.5 mm',$,#279,$,$);
#291=IFCQUANTITYLENGTH('Width',$,$,0.025000000000000001,$);
#292=IFCMATERIALCONSTITUENTSET('Basisdach:DAC_AU_D\X\C4M_292_Zwischensparrungd\X\E4mmung_DA01',$,(#280,#282,#284,#286,#288,#290));
#293=IFCPHYSICALCOMPLEXQUANTITY('Layer',$,(#281),'Layer',$,$);
#294=IFCPHYSICALCOMPLEXQUANTITY('Holz - generisch 140-100-70',$,(#283),'Layer',$,$);
#295=IFCPHYSICALCOMPLEXQUANTITY('W\X\E4rmed\X\E4mmung- Hart_BP_Geb_C',$,(#285),'Layer',$,$);
#296=IFCPHYSICALCOMPLEXQUANTITY('Layer',$,(#287),'Layer',$,$);
#297=IFCPHYSICALCOMPLEXQUANTITY('W\X\E4rmed\X\E4mmung- Hart_BP_Geb_C',$,(#289),'Layer',$,$);
#298=IFCPHYSICALCOMPLEXQUANTITY('Generisch- Gipskartonfeuerschutzplatte GKF12.5 mm',$,(#291),'Layer',$,$);
#299=IFCQUANTITYLENGTH('Width',$,$,0.46400000000000002,$);
#300=IFCPROPERTYSINGLEVALUE('Abdichtung',$,IFCTEXT('ND'),$);
#301=IFCPROPERTYSINGLEVALUE('Dicke',$,IFCLENGTHMEASURE(0.46400000000000002),$);
#302=IFCPROPERTYSINGLEVALUE('Ebene',$,IFCTEXT('DD00'),$);
#303=IFCPROPERTYSINGLEVALUE('ElementName',$,IFCTEXT('DAC_AU_D\X\C4M_292_Zwischensparrungd\X\E4mmung_DA01'),$);
#304=IFCPROPERTYSINGLEVALUE('ElementStatus',$,IFCTEXT('Neubau'),$);
#305=IFCPROPERTYSINGLEVALUE('ElementVerweis',$,IFCTEXT('DA01'),$);
#306=IFCPROPERTYSINGLEVALUE('Feuerwiderstandsklasse',$,IFCTEXT('R 60'),$);
#307=IFCPROPERTYSINGLEVALUE('Gebaeudeteil',$,IFCTEXT('YOCA'),$);
#308=IFCPROPERTYSINGLEVALUE('NettoFlaeche',$,IFCAREAMEASURE(87.200668413882553),$);
#309=IFCPROPERTYSINGLEVALUE('NettoVolumen',$,IFCVOLUMEMEASURE(36.276740034975013),$);
#310=IFCPROPERTYSINGLEVALUE('Oberflaeche',$,IFCTEXT('D\X\C4M'),$);
#311=IFCPROPERTYSINGLEVALUE('ProjizierteGrundFlaeche',$,IFCAREAMEASURE(85.849335349363855),$);
#312=IFCPROPERTYSINGLEVALUE('Schallschutzklasse',$,IFCTEXT('ND'),$);
#313=IFCPROPERTYSET('0vFTyVut_eHto1qtvG6pDC',#18,'AUKOset','',(#153,#163,#217,#300,#301,#302,#303,#304,#305,#306,#307,#308,#309,#310,#311,#312));
#314=IFCPROPERTYSINGLEVALUE('Status',$,IFCTEXT('Neubau'),$);
#315=IFCPROPERTYSINGLEVALUE('Reference',$,IFCTEXT('DAC_AU_D\X\C4M_292_Zwischensparrungd\X\E4mmung_DA01'),$);
#316=IFCPROPERTYSINGLEVALUE('FireRating',$,IFCTEXT('R 60'),$);
#317=IFCPROPERTYSINGLEVALUE('AcousticRating',$,IFCTEXT('ND'),$);
#318=IFCPROPERTYSET('0fL_qqt_4Wp0Im5Bwvb5_t',#18,'Pset_RoofCommon','',(#168,#231,#314,#315,#316,#317));
#319=IFCRELDEFINESBYPROPERTIES('2Txsl$A0lmcMrWR70hzyDQ',#18,$,$,(#269),#313);
#320=IFCRELDEFINESBYPROPERTIES('34pSAvaKkzmYNbDAIZDVDq',#18,$,$,(#269),#318);
#321=IFCQUANTITYAREA('NetArea','',$,87.200668413882553,$);
#322=IFCQUANTITYAREA('ProjectedArea','',$,85.849335349363812,$);
#323=IFCELEMENTQUANTITY('21AL7LM2oiKzMwQIAWuJeF',#18,'Qto_RoofBaseQuantities',$,$,(#321,#322));
#324=IFCRELDEFINESBYPROPERTIES('3vVrsnu0CWXUo_HNzsb20F',#18,$,$,(#269),#323);
#325=IFCCARTESIANPOINT((1.4892188338085495,47.45495048493877,0.38000000000000456));
#326=IFCAXIS2PLACEMENT3D(#325,#9,#8);
#327=IFCLOCALPLACEMENT(#63,#326);
#328=IFCCARTESIANPOINTLIST3D(((0.,-1.1602397984427181E-016,0.),(5.5499529937945908,-1.1692344109681614E-016,0.)));
#329=IFCINDEXEDPOLYCURVE(#328,$,.F.);
#330=IFCSHAPEREPRESENTATION(#23,'Axis','Curve3D',(#329));
#348=IFCCARTESIANPOINTLIST2D(((5.5499529937877945,-0.079999999999999946),(5.5499529937878291,0.079999999999999946),(2.5349529937863569,0.079999999999999905),(2.3099529937863563,0.079999999999999905),(3.949317104811481E-015,0.079999999999999946),(4.7136199295756609E-015,-0.079999999999999946),(5.5499529937877945,-0.079999999999999946)));
#349=IFCINDEXEDPOLYCURVE(#348,$,.F.);
#350=IFCARBITRARYCLOSEDPROFILEDEF(.AREA.,$,#349);
#351=IFCAXIS2PLACEMENT3D(#3,$,$);
#352=IFCEXTRUDEDAREASOLID(#350,#351,#9,4.0262066335554847);
#353=IFCINDEXEDPOLYGONALFACE((1,2,3,4));
#354=IFCINDEXEDPOLYGONALFACE((5,6,7,8,9,10));
#355=IFCINDEXEDPOLYGONALFACE((2,1,5,10,9,8));
#356=IFCINDEXEDPOLYGONALFACE((1,4,6,5));
#357=IFCINDEXEDPOLYGONALFACE((3,2,8,7));
#358=IFCINDEXEDPOLYGONALFACE((4,3,7,6));
#359=IFCCARTESIANPOINTLIST3D(((8.6629370343871419E-015,-0.080000000000000071,0.),(5.5499529937877989,-0.080000000000000071,0.),(5.5499529937877989,-0.080000000000000071,3.0376094341942017),(8.6629370343871419E-015,-0.080000000000000071,4.0262066335554803),(8.6629370343871419E-015,0.079999999999999835,0.),(8.6629370343871419E-015,0.079999999999999835,4.0262066335554803),(5.5499529937923384,0.079999999999999835,3.0376094341933961),(5.5499529937878336,0.079999999999999835,0.),(2.5349529937863617,0.07999999999999978,0.),(2.3099529937863612,0.07999999999999978,0.)));
#360=IFCPOLYGONALFACESET(#359,.T.,(#353,#354,#355,#356,#357,#358),$);
#361=IFCSHAPEREPRESENTATION(#24,'Body','Tessellation',(#360));
#362=IFCPRODUCTDEFINITIONSHAPE($,$,(#330,#361));
#363=IFCWALL('3fFM8Hywr4ywH_W5S3Z0fp',#18,'Basiswand:WAN_IN_GIP_160_Vorsatzschale:35781282',$,'Basiswand:WAN_IN_GIP_160_Vorsatzschale',#327,#362,'35781282',.NOTDEFINED.);
#364=IFCQUANTITYLENGTH('Height',$,$,4.0262066335554847,$);
#365=IFCQUANTITYLENGTH('Length',$,$,5.5499529937945908,$);
#366=IFCQUANTITYLENGTH('Width',$,$,0.16,$);
#367=IFCQUANTITYAREA('GrossFootprintArea',$,$,0.88799247900604861,$);
#368=IFCQUANTITYVOLUME('GrossVolume',$,$,3.1363077706235538,$);
#369=IFCQUANTITYAREA('GrossSideArea',$,$,19.601923566397211,$);
#370=IFCQUANTITYAREA('NetSideArea',$,$,19.601923566397208,$);
#371=IFCQUANTITYVOLUME('NetVolume',$,$,3.136307770622444,$);
#372=IFCELEMENTQUANTITY('26hlc9F2$SYfXnc5dU5Ttf',#18,'Qto_WallBaseQuantities',$,$,(#364,#365,#366,#367,#368,#369,#370,#371));
#373=IFCRELDEFINESBYPROPERTIES('3IqD3AME9Mptrs7$yrtB13',#18,$,$,(#363),#372);
#374=IFCWALLTYPE('3Y8_l9bq16_fZrGpMN5Kij',#18,'Basiswand:WAN_IN_GIP_160_Vorsatzschale',$,$,(#405),$,'19961967',$,.STANDARD.);
#375=IFCPROPERTYSINGLEVALUE('Abdichtung',$,IFCTEXT('ND'),$);
#376=IFCPROPERTYSINGLEVALUE('BruttoFlaeche',$,IFCAREAMEASURE(19.601923566397208),$);
#377=IFCPROPERTYSINGLEVALUE('BruttoVolumen',$,IFCVOLUMEMEASURE(3.136307770622444),$);
#378=IFCPROPERTYSINGLEVALUE('Ebene',$,IFCTEXT('OG05_OKRF'),$);
#379=IFCPROPERTYSINGLEVALUE('ElementName',$,IFCTEXT('WAN_IN_GIP_160_Vorsatzschale'),$);
#380=IFCPROPERTYSINGLEVALUE('ElementStatus',$,IFCTEXT('Neubau'),$);
#381=IFCPROPERTYSINGLEVALUE('ElementVerweis',$,IFCTEXT('ND'),$);
#382=IFCPROPERTYSINGLEVALUE('Feuerwiderstandsklasse',$,IFCTEXT('ND'),$);
#383=IFCPROPERTYSINGLEVALUE('Gebaeudeteil',$,IFCTEXT('YOCA'),$);
#384=IFCPROPERTYSINGLEVALUE('Hoehe',$,IFCLENGTHMEASURE(2.910000000000001),$);
#385=IFCPROPERTYSINGLEVALUE('Laenge',$,IFCLENGTHMEASURE(5.6999529937878339),$);
#386=IFCPROPERTYSINGLEVALUE('MaterialName',$,IFCTEXT('GIP'),$);
#387=IFCPROPERTYSINGLEVALUE('Nettoflaeche',$,IFCAREAMEASURE(19.601923566397208),$);
#388=IFCPROPERTYSINGLEVALUE('NettoVolumen',$,IFCVOLUMEMEASURE(3.136307770622444),$);
#389=IFCPROPERTYSINGLEVALUE('Oberflaeche',$,IFCTEXT('GIP'),$);
#390=IFCPROPERTYSINGLEVALUE('Schallschutzklasse',$,IFCTEXT('ND'),$);
#391=IFCPROPERTYSET('3dThhCxorxGqG00a8CQ6Xm',#18,'AUKOset','',(#146,#153,#163,#375,#376,#377,#378,#379,#380,#381,#382,#383,#384,#385,#386,#387,#388,#389,#390));
#392=IFCPROPERTYSINGLEVALUE('Status',$,IFCTEXT('Neubau'),$);
#393=IFCPROPERTYSINGLEVALUE('Reference',$,IFCTEXT('WAN_IN_GIP_160_Vorsatzschale'),$);
#394=IFCPROPERTYSINGLEVALUE('Compartmentation',$,IFCTEXT('Nein'),$);
#395=IFCPROPERTYSINGLEVALUE('AcousticRating',$,IFCTEXT('ND'),$);
#396=IFCPROPERTYSINGLEVALUE('FireRating',$,IFCTEXT('ND'),$);
#397=IFCPROPERTYSET('221g_h9FeGpu3aRW58wBEp',#18,'Pset_WallCommon','',(#165,#168,#392,#393,#394,#395,#396));
#398=IFCPROPERTYSINGLEVALUE('ElementMainMateriality',$,IFCTEXT('GIP'),$);
#399=IFCPROPERTYSET('2C$zBYG8Slk$GaDx2d23lR',#18,'Pset_WallSpecific','',(#398));
#400=IFCRELDEFINESBYPROPERTIES('3URL7fdoF15zreF3m9WznJ',#18,$,$,(#363),#391);
#401=IFCRELDEFINESBYPROPERTIES('0NRLfIIl7ac8Pv_RFkp8jo',#18,$,$,(#363),#397);
#402=IFCRELDEFINESBYPROPERTIES('2m4BOYeZCOuq3pNTjLTIf_',#18,$,$,(#363),#399);
#403=IFCCLASSIFICATIONREFERENCE('https://www.csiresources.org/standards/uniformat','342','Uniformat',#28,'Nichttragende Innenw\X\E4nde',$);
#404=IFCPROPERTYSINGLEVALUE('Dicke',$,IFCLENGTHMEASURE(0.16),$);
#405=IFCPROPERTYSET('3xeWnKVMKMPj$QO7ZWaIlM',#18,'AUKOset',$,(#404));
#406=IFCRELCONTAINEDINSPATIALSTRUCTURE('0wvQb95bP7zRnE9dYR$6zf',#18,$,$,(#121,#363),#64);
#407=IFCRELCONTAINEDINSPATIALSTRUCTURE('1i7EZHcEz6VBJ_8XxrV4DQ',#18,$,$,(#199,#269),#68);
#408=IFCRELAGGREGATES('1VG3WQ9MKyJTcxHPDC2UJp',#18,$,$,#27,(#73));
#409=IFCRELAGGREGATES('16pM40_cfDc2I8h_VEJS1d',#18,$,$,#73,(#32));
#410=IFCRELAGGREGATES('3ArnKS23b6KfTZD9DLuN09',#18,$,$,#32,(#36,#40,#44,#48,#52,#56,#60,#64,#68));
#411=IFCRELASSOCIATESMATERIAL('0JRTjjIkb45ECMbqF1DMdz',#18,$,$,(#121,#144),#130);
#412=IFCRELASSOCIATESMATERIAL('0Mi0vfEkDRENZYWuvzHn9n',#18,$,$,(#363),#202);
#413=IFCRELASSOCIATESMATERIAL('2RhfRyodpkqWHfDF6FiO_E',#18,$,$,(#199),#211);
#414=IFCRELASSOCIATESMATERIAL('1iYwjVnkwR2hpZ2Wu_j_xs',#18,$,$,(#269),#292);
#415=IFCRELDEFINESBYTYPE('1T2iu5G22Uy8gPAODILJ1L',#18,$,$,(#121),#144);
#416=IFCRELDEFINESBYTYPE('137TLwNhn_CTFNHAxFdhjQ',#18,$,$,(#199),#200);
#417=IFCRELDEFINESBYTYPE('3$21DMid3Gg63e6vj7T067',#18,$,$,(#269),#270);
#418=IFCRELDEFINESBYTYPE('084sNMPrgJW$5T23VieYEN',#18,$,$,(#363),#374);
#419=IFCPRESENTATIONLAYERASSIGNMENT('I-WALL-____-OTLN',$,(#80,#112,#114,#116,#118,#330,#361),$);
#420=IFCPRESENTATIONLAYERASSIGNMENT('A-ROOF-____-OTLN',$,(#196,#266),$);
#421=IFCRELASSOCIATESCLASSIFICATION('2yx4Zj1s_sRlgZAcT3$w$0',#18,'Uniformat','Uniformat:342',(#363),#403);
#422=IFCUNITASSIGNMENT((#19,#74,#90,#137));
ENDSEC;

END-ISO-10303-21;